<svg width="20" height="20" viewBox="0 0 20 20" fill="none" xmlns="http://www.w3.org/2000/svg">
<path d="M6.00309 0.000901003C6.19593 0.00774892 6.38576 0.0532557 6.56071 0.133713C6.73364 0.213264 6.88882 0.325909 7.01774 0.464768L15.1056 9.01555C15.3595 9.2839 15.5001 9.63853 15.5002 10.0058C15.5001 10.3728 15.3592 10.7268 15.1056 10.995L7.01774 19.5458C6.8871 19.6838 6.73007 19.796 6.55582 19.8739C6.38164 19.9518 6.1932 19.9945 6.00211 19.9999C5.81086 20.0053 5.62009 19.9722 5.44157 19.9042C5.26334 19.8363 5.10029 19.7347 4.96207 19.6044C4.82377 19.4739 4.71242 19.3172 4.63493 19.1445C4.5575 18.9718 4.51532 18.7854 4.50993 18.5966C4.5046 18.4077 4.53614 18.2187 4.60368 18.0419C4.67122 17.8653 4.77297 17.7033 4.90348 17.5654L12.0558 10.0048L4.90348 2.44426L4.90446 2.44328C4.7732 2.30695 4.66884 2.14701 4.59977 1.9716C4.52996 1.79414 4.49609 1.60434 4.50016 1.41399C4.50431 1.22352 4.54666 1.03471 4.62418 0.860276C4.7018 0.685863 4.81378 0.527944 4.95328 0.396409C5.09282 0.264859 5.25746 0.16157 5.43766 0.0936744C5.61785 0.0258563 5.81038 -0.00589809 6.00309 0.000901003Z" fill="#232020"/>
</svg>
